<?xml version="1.0" standalone="no"?>
<!DOCTYPE svg PUBLIC "-//W3C//DTD SVG 20010904//EN"
 "http://www.w3.org/TR/2001/REC-SVG-20010904/DTD/svg10.dtd">
<svg version="1.0" xmlns="http://www.w3.org/2000/svg"
 width="1000.000000pt" height="1000.000000pt" viewBox="0 0 1000.000000 1000.000000"
 preserveAspectRatio="xMidYMid meet">
<metadata>
Created by potrace 1.14, written by Peter Selinger 2001-2017
</metadata>
<g transform="translate(0.000000,1000.000000) scale(0.100000,-0.100000)"
fill="#000000" stroke="none">
<path d="M1120 7795 c0 -2 639 -848 1420 -1879 l1420 -1875 0 -920 0 -921
1040 0 1040 0 0 921 0 920 1420 1875 c781 1031 1420 1877 1420 1879 0 3 -539
4 -1197 3 l-1198 -3 -737 -1030 c-405 -566 -742 -1030 -748 -1030 -6 0 -343
464 -748 1030 l-737 1030 -1198 3 c-658 1 -1197 0 -1197 -3z"/>
</g>
</svg>
